# xmcd
#
# Track frame offsets:
#	150
#	17936
#	35934
#	49000
#	68009
#	86864
#	102593
#	121657
#	133562
#	147385
#	162888
#	179493
#
# Disc length: 2578 seconds
# Revision: 0
# Processed by: cddbd v1.5.2PL0 Copyright (c) Steve Scherf et al.
# Submitted via: dBpowerAMP V12.0
#
DISCID=ad0a100c
DTITLE=Mathis Haug - Distance
DYEAR=2013
DGENRE=Blues
TTITLE0=We'll Get There By Dawn
TTITLE1=Carnival Train
TTITLE2=Wise Advice
TTITLE3=Poodle Dog
TTITLE4=Sign Of The Times
TTITLE5=Song For My Brunette
TTITLE6=Heartbreaker
TTITLE7=Cannibal Dancer
TTITLE8=Paper Cup
TTITLE9=Is Jesus On My Side ?
TTITLE10=The Clown
TTITLE11=Sad And Lonesome Day Blues
EXTD=
EXTT0=
EXTT1=
EXTT2=
EXTT3=
EXTT4=
EXTT5=
EXTT6=
EXTT7=
EXTT8=
EXTT9=
EXTT10=
EXTT11=
PLAYORDER=
